<?xml version="1.0" standalone="no"?>
<!DOCTYPE svg PUBLIC "-//W3C//DTD SVG 20010904//EN"
 "http://www.w3.org/TR/2001/REC-SVG-20010904/DTD/svg10.dtd">
<svg version="1.0" xmlns="http://www.w3.org/2000/svg"
 width="300.000000pt" height="300.000000pt" viewBox="0 0 300.000000 300.000000"
 preserveAspectRatio="xMidYMid meet">
<metadata>
Created by potrace 1.14, written by Peter Selinger 2001-2017
</metadata>
<g transform="translate(0.000000,300.000000) scale(0.100000,-0.100000)"
fill="#000000" stroke="none">
<path d="M1370 2989 c-470 -45 -887 -300 -1134 -693 -125 -200 -198 -406 -223
-636 -18 -161 -2 -387 37 -536 157 -589 621 -1009 1225 -1109 79 -13 411 -14
465 -1 14 3 59 13 100 22 168 37 355 119 515 227 177 120 384 356 480 547 15
30 32 63 37 74 27 52 78 213 99 311 18 89 23 143 23 285 1 190 -1 214 -38 386
-12 59 -71 216 -110 292 -213 426 -605 724 -1066 812 -112 22 -293 30 -410 19z"/>
</g>
</svg>
