<svg version="1.0" xmlns="http://www.w3.org/2000/svg"
 width="20.000000pt" height="20.000000pt" viewBox="0 0 512.000000 512.000000"
 preserveAspectRatio="xMidYMid meet">

<g transform="translate(0.000000,512.000000) scale(0.100000,-0.100000)"
fill="#000000" stroke="none">
<path d="M544 5104 c-16 -8 -38 -28 -47 -43 -16 -27 -17 -190 -17 -2446 0
-2260 1 -2419 17 -2446 33 -56 54 -59 360 -59 267 0 280 1 301 20 30 28 30 82
0 110 -21 19 -34 20 -275 20 l-253 0 0 2355 0 2355 1720 0 1720 0 0 -1611 c0
-1530 -1 -1611 -17 -1604 -92 36 -174 49 -318 49 -134 -1 -160 -4 -238 -27
-49 -15 -110 -38 -137 -52 l-49 -25 -741 0 -741 0 -24 -25 c-32 -31 -32 -69 0
-100 l24 -25 636 0 637 0 -42 -47 c-23 -26 -55 -69 -72 -95 l-31 -48 -553 0
c-384 0 -561 -3 -577 -11 -24 -11 -47 -47 -47 -73 0 -7 9 -25 21 -40 l20 -26
530 0 c291 0 529 -2 529 -4 0 -3 -10 -44 -21 -93 -40 -162 -27 -363 31 -521
38 -102 106 -215 178 -294 l34 -38 -834 0 c-826 0 -834 0 -856 -20 -30 -28
-30 -82 0 -110 22 -20 30 -20 959 -20 l937 0 63 -30 c91 -42 208 -70 324 -77
414 -23 799 253 915 657 31 107 38 307 15 421 -43 213 -165 411 -332 538 l-73
54 0 1674 c0 1849 5 1712 -63 1753 -31 20 -64 20 -1807 20 -1560 0 -1779 -2
-1806 -16z m3344 -3460 c288 -59 508 -270 582 -558 39 -153 21 -349 -44 -493
-96 -208 -290 -368 -516 -424 -80 -20 -279 -18 -360 4 -362 99 -607 457 -560
816 58 446 467 744 898 655z"/>
<path d="M3600 1515 c-221 -50 -407 -232 -466 -455 -23 -84 -23 -225 -1 -308
31 -115 75 -190 167 -282 65 -66 103 -95 161 -123 246 -121 520 -75 715 118
123 123 186 264 139 315 -22 24 -86 27 -105 5 -6 -8 -27 -46 -46 -85 -40 -83
-122 -171 -200 -212 -188 -101 -407 -67 -560 86 -182 183 -186 463 -9 654 224
242 617 185 765 -111 52 -104 55 -107 100 -107 45 0 73 27 73 70 0 58 -71 180
-152 261 -126 125 -244 178 -416 185 -66 2 -122 -1 -165 -11z"/>
<path d="M3838 973 l-138 -137 -103 102 c-63 61 -112 102 -124 102 -38 0 -73
-38 -73 -78 0 -33 11 -47 133 -169 180 -180 153 -183 375 40 146 147 172 178
172 203 0 38 -36 74 -75 74 -23 0 -54 -25 -167 -137z"/>
<path d="M1186 4649 c-20 -16 -26 -29 -26 -60 l0 -39 -57 0 c-183 0 -295 -173
-219 -336 50 -108 119 -134 358 -134 155 0 170 -2 188 -20 26 -26 26 -80 1
-111 -19 -24 -22 -24 -230 -27 l-210 -3 -21 -26 c-23 -29 -24 -42 -9 -76 16
-35 49 -47 129 -47 l70 0 0 -33 c0 -50 24 -77 69 -77 45 0 69 23 78 72 5 35 5
35 69 41 140 13 224 100 224 232 0 94 -44 166 -125 204 -40 19 -62 21 -220 21
-220 0 -245 9 -245 91 0 18 10 39 25 54 24 25 25 25 223 25 180 0 202 2 223
19 17 13 23 29 23 56 0 57 -28 75 -119 75 l-72 0 -7 39 c-6 42 -44 81 -76 81
-10 0 -29 -9 -44 -21z"/>
<path d="M2203 4590 c-13 -5 -32 -24 -43 -42 -17 -29 -20 -51 -20 -168 0 -149
13 -190 66 -210 16 -6 319 -10 794 -10 l770 0 32 29 33 29 0 161 0 161 -28 27
-27 28 -165 3 c-154 3 -165 2 -184 -17 -28 -28 -28 -84 1 -111 19 -18 35 -20
140 -20 l118 0 0 -70 0 -70 -700 0 -700 0 0 70 0 70 426 0 c423 0 455 2 476
34 15 22 8 76 -12 96 -19 19 -33 20 -487 19 -258 0 -478 -4 -490 -9z"/>
<path d="M3025 4033 c-52 -13 -72 -74 -39 -121 l15 -22 399 0 399 0 20 26 c27
35 26 57 -3 91 l-24 28 -374 2 c-205 0 -382 -1 -393 -4z"/>
<path d="M886 3359 l-26 -20 0 -635 c0 -615 1 -635 19 -653 11 -11 35 -23 53
-26 18 -3 669 -4 1446 -3 l1414 3 24 28 24 28 0 625 0 625 -25 24 -24 25
-1439 0 -1439 0 -27 -21z m384 -254 l0 -125 -130 0 -130 0 0 125 0 125 130 0
130 0 0 -125z m1410 0 l0 -125 -630 0 -630 0 0 125 0 125 630 0 630 0 0 -125z
m1010 0 l0 -125 -430 0 -430 0 0 118 c0 65 3 122 7 125 3 4 197 7 430 7 l423
0 0 -125z m-2420 -400 l0 -125 -130 0 -130 0 0 125 0 125 130 0 130 0 0 -125z
m1410 0 l0 -125 -630 0 -630 0 0 125 0 125 630 0 630 0 0 -125z m1010 0 l0
-125 -430 0 -430 0 0 118 c0 65 3 122 7 125 3 4 197 7 430 7 l423 0 0 -125z
m-2422 -402 l-3 -128 -127 -3 -128 -3 0 131 0 130 130 0 131 0 -3 -127z m1412
-3 l0 -130 -630 0 -630 0 0 130 0 130 630 0 630 0 0 -130z m1008 3 l-3 -128
-425 0 -425 0 -3 114 c-1 63 0 121 2 128 4 10 89 13 431 13 l426 0 -3 -127z"/>
<path d="M886 1679 c-34 -27 -36 -77 -3 -107 23 -22 28 -22 379 -22 l357 0 20
26 c28 35 26 69 -4 99 l-24 25 -349 0 c-338 0 -350 -1 -376 -21z"/>
<path d="M903 1350 c-44 -18 -57 -86 -23 -120 19 -19 33 -20 379 -20 l360 0
20 26 c26 33 27 65 2 95 l-19 24 -349 2 c-191 1 -358 -2 -370 -7z"/>
<path d="M924 986 c-59 -26 -64 -44 -64 -214 l0 -154 29 -29 29 -29 712 0
c469 0 718 4 731 10 40 22 49 61 49 212 0 160 -6 179 -66 204 -49 20 -1373 20
-1420 0z m1336 -206 l0 -70 -625 0 -625 0 0 70 0 70 625 0 625 0 0 -70z"/>
</g>
</svg>
