<svg width="782" height="269" viewBox="0 0 782 269" fill="none" xmlns="http://www.w3.org/2000/svg">
<path d="M342.801 5.32727V75.0707H264.392V111.796H342.801V164.995H387.141V5.32727H342.801Z" fill="#010101"/>
<path d="M144.73 122.591L189.071 161.264V111.82H262.673V75.1411H144.73V122.591ZM312.997 19.5247C299.662 10.0676 283.241 5.32727 263.709 5.32727H174.016L144.73 42.0059H267.879C273.958 42.0059 279.07 43.4608 283.217 46.3942C287.364 49.3276 289.461 53.3169 289.461 58.3623C289.461 63.4311 287.387 67.4909 283.217 70.5416C281.639 71.6914 279.919 72.6301 278.081 73.3576H331.586C333.07 68.7581 333.824 63.8066 333.824 58.55C333.801 42.5222 326.874 29.5216 312.997 19.5247Z" fill="#0079D8"/>
<path d="M2.66214 5.32727H170.552L141.102 42.2406L105.385 42.0059V122.638H141.267L188.811 164.995H1.62549L31.0051 122.638H60.9265V42.0059H31.0051L2.66214 5.32727Z" fill="#010101"/>
<path d="M410.137 30.4367L402.291 34.872V4.48242H410.137V30.4367Z" fill="#010101"/>
<path d="M448.092 30.3898H442.155L423.707 15.2772V30.3898L415.861 34.872V4.48242H421.469L440.246 19.9471V4.48242H448.092V30.3898Z" fill="#010101"/>
<path d="M488.568 22.4345L482.655 30.3898H452.498L458.27 24.5935H478.06L479.922 22.458L478.037 20.1113H458.223L452.498 12.4611L458.411 4.48242H488.568L482.749 10.2787H463.005L461.121 12.4846L463.005 14.8313H482.843L488.568 22.4345Z" fill="#010101"/>
<path d="M526.665 4.48242L520.893 10.2787H513.189V30.3898L505.343 34.872V10.2787H497.615L491.843 4.48242H526.665Z" fill="#010101"/>
<path d="M538.115 30.4367L530.27 34.872V4.48242H538.115V30.4367Z" fill="#010101"/>
<path d="M577.414 4.48242L571.641 10.2787H563.914V30.3898L556.068 34.872V10.2787H548.364L542.592 4.48242H577.414Z" fill="#010101"/>
<path d="M650.615 4.48242L644.843 10.2787H637.115V30.3898L629.27 34.872V10.2787H621.565L615.793 4.48242H650.615Z" fill="#010101"/>
<path d="M612.401 24.4995L606.487 30.3897H586.791L580.877 24.4995V0.00012207L588.723 4.52922V24.5933H604.555V4.48228H612.401V24.4995Z" fill="#010101"/>
<path d="M686.851 4.48242L681.079 10.2787H663.62V14.8548H683.058L677.78 20.1113H663.62V24.5935H685.932L680.113 30.3898H655.775V4.48242H686.851Z" fill="#010101"/>
<path d="M744.502 24.4996L738.588 30.3898H716.937L711.023 24.4996V10.3726L716.937 4.48242H738.588L744.502 10.3726V24.4996ZM736.656 24.5935V10.2787H718.892V24.5935H736.656Z" fill="#010101"/>
<path d="M781.045 4.48242L775.273 10.2787H757.815V14.8548H777.252L771.951 20.1113H757.791V30.4367L749.946 34.872V4.48242H781.045Z" fill="#010101"/>
<path d="M467.882 61.1549L454.382 79.3417H418.358V96.3316L402.95 105.132V45.4556H456.267L467.882 61.1549ZM452.049 62.1405L448.021 56.837H418.358V67.796H447.973L452.049 62.1405Z" fill="#0079D8"/>
<path d="M490.382 96.402L474.974 105.132V45.4556H490.382V96.402Z" fill="#0079D8"/>
<path d="M568.461 96.3317H550.225L533.851 79.9988L517.476 96.3317H499.123L524.662 70.9641L499.123 45.4791H517.476L533.851 61.812L550.225 45.4791H568.461L542.898 70.9641L568.461 96.3317Z" fill="#0079D8"/>
<path d="M644.206 96.3316H625.971L609.596 79.9987L593.222 96.3316H574.869L600.431 70.964L574.869 45.4556H593.222L609.596 61.7885L625.971 45.4556H644.183L618.62 70.9405L644.206 96.3316Z" fill="#0079D8"/>
<path d="M714.157 45.4556L702.824 56.837H668.544V65.8013H706.712L696.322 76.1502H668.544V84.9502H712.343L700.916 96.3316H653.136V45.4556H714.157Z" fill="#0079D8"/>
<path d="M780.88 84.9502L769.453 96.3316H721.673V45.526L737.081 36.6555V84.9502H780.88Z" fill="#0079D8"/>
<path d="M0 185.67H15.7147V190.973H10.5314V213.994H5.04188V190.973H0V185.67Z" fill="#010101"/>
<path d="M20.8508 184.965H26.0812V195.174C27.1178 194.282 28.1545 193.625 29.1911 193.179C30.2278 192.733 31.288 192.522 32.3718 192.522C34.4686 192.522 36.2121 193.249 37.6493 194.681C38.8744 195.924 39.4869 197.755 39.4869 200.172V214.017H34.2801V204.842C34.2801 202.425 34.1623 200.782 33.9267 199.914C33.6911 199.046 33.2906 198.412 32.7487 197.99C32.1833 197.567 31.5 197.356 30.6754 197.356C29.6152 197.356 28.6964 197.708 27.9189 198.412C27.1414 199.116 26.6231 200.078 26.3168 201.298C26.1519 201.932 26.0812 203.363 26.0812 205.616V214.041H20.8508V184.965Z" fill="#010101"/>
<path d="M67.6415 205.029H50.6781C50.9137 206.508 51.5734 207.705 52.6336 208.573C53.6938 209.441 55.0603 209.887 56.7095 209.887C58.6886 209.887 60.3849 209.206 61.7985 207.822L66.2514 209.91C65.1441 211.483 63.8247 212.633 62.2697 213.384C60.7148 214.134 58.8771 214.51 56.7566 214.51C53.4582 214.51 50.7724 213.477 48.6991 211.389C46.6258 209.324 45.5891 206.719 45.5891 203.598C45.5891 200.406 46.6258 197.755 48.6991 195.643C50.7724 193.531 53.364 192.475 56.4739 192.475C59.7959 192.475 62.4818 193.531 64.5551 195.643C66.6284 197.755 67.665 200.547 67.665 204.02L67.6415 205.029ZM62.364 200.899C62.0106 199.726 61.3273 198.787 60.2907 198.06C59.254 197.332 58.076 196.957 56.7095 196.957C55.2488 196.957 53.953 197.379 52.8457 198.201C52.1388 198.717 51.5027 199.609 50.9137 200.923H62.364V200.899Z" fill="#010101"/>
<path d="M87.1255 185.67H92.4972V213.994H87.1255V185.67Z" fill="#010101"/>
<path d="M99.9889 193.038H105.266V195.174C106.468 194.164 107.552 193.46 108.518 193.085C109.484 192.686 110.473 192.498 111.51 192.498C113.583 192.498 115.374 193.226 116.811 194.681C118.036 195.924 118.649 197.731 118.649 200.148V213.994H113.418V204.818C113.418 202.307 113.3 200.665 113.088 199.843C112.853 199.022 112.476 198.388 111.91 197.966C111.345 197.544 110.662 197.332 109.837 197.332C108.777 197.332 107.858 197.684 107.081 198.388C106.327 199.092 105.785 200.078 105.478 201.345C105.313 202.002 105.243 203.41 105.243 205.593V213.994H99.9653V193.038H99.9889Z" fill="#010101"/>
<path d="M138.604 195.971L135.33 199.233C134.01 197.919 132.809 197.262 131.725 197.262C131.136 197.262 130.665 197.379 130.335 197.638C130.005 197.896 129.84 198.201 129.84 198.576C129.84 198.858 129.958 199.116 130.17 199.351C130.382 199.585 130.9 199.914 131.748 200.313L133.68 201.275C135.706 202.284 137.12 203.293 137.874 204.326C138.628 205.358 139.005 206.578 139.005 207.986C139.005 209.84 138.322 211.413 136.955 212.656C135.589 213.9 133.751 214.534 131.442 214.534C128.379 214.534 125.929 213.337 124.091 210.943L127.343 207.423C127.955 208.151 128.686 208.714 129.51 209.16C130.335 209.606 131.089 209.817 131.725 209.817C132.432 209.817 132.974 209.653 133.398 209.324C133.822 208.995 134.034 208.597 134.034 208.174C134.034 207.376 133.256 206.578 131.725 205.804L129.958 204.912C126.565 203.199 124.845 201.064 124.845 198.506C124.845 196.84 125.481 195.432 126.777 194.258C128.073 193.085 129.699 192.498 131.701 192.498C133.068 192.498 134.364 192.803 135.565 193.39C136.743 194 137.78 194.845 138.604 195.971Z" fill="#010101"/>
<path d="M145.767 185.318H151.044V193.038H154.178V197.567H151.044V213.994H145.767V197.567H143.057V193.038H145.767V185.318Z" fill="#010101"/>
<path d="M161.034 184.426C161.953 184.426 162.754 184.754 163.413 185.435C164.073 186.092 164.403 186.913 164.403 187.852C164.403 188.79 164.073 189.588 163.413 190.245C162.754 190.902 161.976 191.231 161.057 191.231C160.115 191.231 159.314 190.902 158.654 190.222C157.994 189.541 157.665 188.72 157.665 187.758C157.665 186.843 157.994 186.045 158.654 185.388C159.337 184.754 160.115 184.426 161.034 184.426ZM158.395 193.038H163.672V213.994H158.395V193.038Z" fill="#010101"/>
<path d="M171.094 185.318H176.371V193.038H179.505V197.567H176.371V213.994H171.094V197.567H168.384V193.038H171.094V185.318Z" fill="#010101"/>
<path d="M184.288 193.038H189.612V203.129C189.612 205.1 189.754 206.461 190.013 207.212C190.296 207.986 190.72 208.573 191.332 208.995C191.921 209.418 192.675 209.629 193.547 209.629C194.419 209.629 195.173 209.418 195.785 208.995C196.398 208.573 196.845 207.963 197.152 207.165C197.364 206.555 197.481 205.264 197.481 203.293V193.038H202.759V201.908C202.759 205.569 202.476 208.08 201.887 209.418C201.18 211.06 200.144 212.328 198.754 213.196C197.364 214.064 195.62 214.51 193.5 214.51C191.191 214.51 189.33 213.994 187.892 212.961C186.479 211.929 185.466 210.497 184.877 208.667C184.453 207.4 184.264 205.076 184.264 201.744V193.038H184.288Z" fill="#010101"/>
<path d="M210.675 185.318H215.953V193.038H219.086V197.567H215.953V213.994H210.675V197.567H207.966V193.038H210.675V185.318Z" fill="#010101"/>
<path d="M244.955 205.029H227.992C228.227 206.508 228.887 207.705 229.947 208.573C231.008 209.441 232.374 209.887 234.023 209.887C236.002 209.887 237.699 209.206 239.112 207.822L243.565 209.91C242.458 211.483 241.138 212.633 239.583 213.384C238.028 214.134 236.191 214.51 234.07 214.51C230.772 214.51 228.086 213.477 226.013 211.389C223.939 209.324 222.903 206.719 222.903 203.598C222.903 200.406 223.939 197.755 226.013 195.643C228.086 193.531 230.678 192.475 233.788 192.475C237.11 192.475 239.795 193.531 241.869 195.643C243.942 197.755 244.979 200.547 244.979 204.02L244.955 205.029ZM239.678 200.899C239.324 199.726 238.641 198.787 237.604 198.06C236.568 197.332 235.39 196.957 234.023 196.957C232.563 196.957 231.267 197.379 230.159 198.201C229.453 198.717 228.816 199.609 228.227 200.923H239.678V200.899Z" fill="#010101"/>
<path d="M278.269 184.965C282.298 184.965 285.761 186.42 288.636 189.307C291.534 192.217 292.971 195.737 292.971 199.914C292.971 204.044 291.534 207.541 288.683 210.403C285.832 213.266 282.369 214.698 278.293 214.698C274.028 214.698 270.471 213.22 267.644 210.286C264.816 207.353 263.403 203.856 263.403 199.82C263.403 197.121 264.063 194.61 265.382 192.358C266.701 190.081 268.515 188.274 270.801 186.96C273.133 185.623 275.607 184.965 278.269 184.965ZM278.222 190.245C275.583 190.245 273.369 191.161 271.578 192.991C269.788 194.822 268.892 197.121 268.892 199.937C268.892 203.058 270.023 205.546 272.285 207.376C274.028 208.808 276.055 209.512 278.316 209.512C280.884 209.512 283.076 208.597 284.866 206.743C286.68 204.889 287.576 202.613 287.576 199.914C287.576 197.215 286.657 194.939 284.843 193.062C283.028 191.161 280.814 190.245 278.222 190.245Z" fill="#010101"/>
<path d="M296.976 193.038H298.861C298.884 190.292 298.908 188.673 299.002 188.157C299.144 187.007 299.638 186.092 300.463 185.411C301.288 184.731 302.466 184.402 303.997 184.402C305.081 184.402 306.329 184.66 307.72 185.153V189.166C306.966 188.955 306.329 188.837 305.835 188.837C305.222 188.837 304.775 188.955 304.492 189.213C304.28 189.401 304.185 189.8 304.185 190.41L304.162 193.038H307.507V197.497H304.162V213.994H298.884V197.497H297V193.038H296.976Z" fill="#010101"/>
<path d="M328.947 185.67H334.225L340.822 205.429L347.466 185.67H352.743L357.502 213.994H352.272L349.233 196.112L343.201 213.994H338.442L332.458 196.112L329.324 213.994H324.047L328.947 185.67Z" fill="#010101"/>
<path d="M363.204 193.038H368.529V203.129C368.529 205.1 368.67 206.461 368.929 207.212C369.212 207.986 369.636 208.573 370.248 208.995C370.837 209.418 371.591 209.629 372.463 209.629C373.335 209.629 374.089 209.418 374.701 208.995C375.314 208.573 375.762 207.963 376.068 207.165C376.28 206.555 376.398 205.264 376.398 203.293V193.038H381.675V201.908C381.675 205.569 381.392 208.08 380.803 209.418C380.097 211.06 379.06 212.328 377.67 213.196C376.28 214.064 374.536 214.51 372.416 214.51C370.107 214.51 368.246 213.994 366.809 212.961C365.395 211.929 364.382 210.497 363.793 208.667C363.369 207.4 363.18 205.076 363.18 201.744V193.038H363.204Z" fill="#010101"/>
<path d="M388.366 184.965H393.644V213.994H388.366V184.965Z" fill="#010101"/>
<path d="M401.066 185.318H406.343V193.038H409.477V197.567H406.343V213.994H401.066V197.567H398.356V193.038H401.066V185.318Z" fill="#010101"/>
<path d="M416.332 184.426C417.251 184.426 418.052 184.754 418.712 185.435C419.372 186.092 419.701 186.913 419.701 187.852C419.701 188.79 419.372 189.588 418.712 190.245C418.052 190.902 417.275 191.231 416.356 191.231C415.413 191.231 414.612 190.902 413.953 190.222C413.293 189.541 412.963 188.72 412.963 187.758C412.963 186.843 413.293 186.045 413.953 185.388C414.612 184.754 415.413 184.426 416.332 184.426ZM413.693 193.038H418.971V213.994H413.693V193.038Z" fill="#010101"/>
<path d="M425.709 193.038H430.986V195.455C431.882 194.469 432.895 193.718 434.002 193.249C435.109 192.756 436.311 192.521 437.607 192.521C438.926 192.521 440.104 192.85 441.164 193.484C442.225 194.117 443.073 195.056 443.709 196.3C444.557 195.056 445.57 194.141 446.795 193.484C448.02 192.85 449.34 192.521 450.8 192.521C452.285 192.521 453.604 192.873 454.759 193.554C455.89 194.258 456.714 195.15 457.209 196.276C457.704 197.403 457.963 199.21 457.963 201.72V213.994H452.638V203.363C452.638 200.993 452.332 199.374 451.743 198.529C451.154 197.684 450.259 197.262 449.081 197.262C448.185 197.262 447.361 197.52 446.654 198.036C445.947 198.552 445.405 199.256 445.052 200.172C444.698 201.087 444.533 202.542 444.533 204.537V213.994H439.209V203.856C439.209 201.979 439.068 200.618 438.785 199.773C438.502 198.928 438.102 198.318 437.536 197.895C436.971 197.496 436.311 197.285 435.51 197.285C434.638 197.285 433.837 197.543 433.107 198.06C432.4 198.576 431.858 199.303 431.505 200.242C431.151 201.181 430.963 202.659 430.963 204.677V213.994H425.685V193.038H425.709Z" fill="#010101"/>
<path d="M485.999 205.029H469.036C469.272 206.508 469.931 207.705 470.992 208.573C472.052 209.441 473.418 209.887 475.067 209.887C477.046 209.887 478.743 209.206 480.156 207.822L484.609 209.91C483.502 211.483 482.183 212.633 480.628 213.384C479.073 214.134 477.235 214.51 475.115 214.51C471.816 214.51 469.13 213.477 467.057 211.389C464.984 209.324 463.947 206.719 463.947 203.598C463.947 200.406 464.984 197.755 467.057 195.643C469.13 193.531 471.722 192.475 474.832 192.475C478.154 192.475 480.84 193.531 482.913 195.643C484.986 197.755 486.023 200.547 486.023 204.02L485.999 205.029ZM480.722 200.899C480.368 199.726 479.685 198.787 478.649 198.06C477.612 197.332 476.434 196.957 475.067 196.957C473.607 196.957 472.311 197.379 471.204 198.201C470.497 198.717 469.861 199.609 469.272 200.923H480.722V200.899Z" fill="#010101"/>
<path d="M507.793 184.965H513.07V213.994H507.793V211.788C506.756 212.774 505.72 213.478 504.683 213.9C503.646 214.322 502.515 214.534 501.314 214.534C498.604 214.534 496.248 213.478 494.269 211.389C492.29 209.301 491.301 206.672 491.301 203.551C491.301 200.313 492.267 197.661 494.175 195.596C496.084 193.531 498.416 192.498 501.173 192.498C502.445 192.498 503.623 192.733 504.73 193.202C505.837 193.672 506.851 194.399 507.793 195.338V184.965ZM502.233 197.356C500.607 197.356 499.241 197.919 498.157 199.069C497.073 200.219 496.531 201.697 496.531 203.481C496.531 205.288 497.073 206.79 498.18 207.939C499.288 209.113 500.631 209.699 502.233 209.699C503.882 209.699 505.272 209.136 506.356 207.986C507.44 206.837 508.005 205.335 508.005 203.481C508.005 201.65 507.463 200.172 506.356 199.046C505.296 197.919 503.905 197.356 502.233 197.356Z" fill="#010101"/>
<path d="M522.424 184.426C523.343 184.426 524.144 184.754 524.804 185.435C525.463 186.092 525.793 186.913 525.793 187.852C525.793 188.79 525.463 189.588 524.804 190.245C524.144 190.902 523.366 191.231 522.448 191.231C521.505 191.231 520.704 190.902 520.044 190.222C519.385 189.541 519.055 188.72 519.055 187.758C519.055 186.843 519.385 186.045 520.044 185.388C520.728 184.754 521.505 184.426 522.424 184.426ZM519.785 193.038H525.063V213.994H519.785V193.038Z" fill="#010101"/>
<path d="M547.374 193.038H552.652V213.994H547.374V211.788C546.338 212.774 545.301 213.478 544.264 213.9C543.228 214.322 542.097 214.534 540.895 214.534C538.186 214.534 535.83 213.478 533.851 211.389C531.872 209.301 530.882 206.672 530.882 203.551C530.882 200.313 531.848 197.661 533.756 195.596C535.665 193.531 537.997 192.498 540.754 192.498C542.026 192.498 543.204 192.733 544.311 193.202C545.419 193.672 546.432 194.399 547.374 195.338V193.038ZM541.814 197.356C540.188 197.356 538.822 197.919 537.738 199.069C536.654 200.219 536.112 201.697 536.112 203.481C536.112 205.288 536.654 206.79 537.762 207.939C538.869 209.113 540.212 209.699 541.814 209.699C543.463 209.699 544.853 209.136 545.937 207.986C547.021 206.837 547.586 205.335 547.586 203.481C547.586 201.65 547.044 200.172 545.937 199.046C544.877 197.919 543.487 197.356 541.814 197.356Z" fill="#010101"/>
<path d="M573.62 185.67H580.028C584.152 185.67 587.238 186.186 589.241 187.195C591.243 188.204 592.892 189.87 594.212 192.17C595.508 194.47 596.167 197.145 596.167 200.219C596.167 202.401 595.814 204.396 595.083 206.226C594.353 208.057 593.34 209.582 592.068 210.779C590.796 211.976 589.405 212.821 587.898 213.29C586.413 213.759 583.822 213.994 580.123 213.994H573.62V185.67ZM578.992 190.879V208.737H581.513C583.987 208.737 585.777 208.456 586.908 207.893C588.015 207.329 588.934 206.367 589.641 205.03C590.348 203.692 590.701 202.049 590.701 200.102C590.701 197.098 589.853 194.751 588.18 193.109C586.649 191.607 584.222 190.879 580.853 190.879H578.992Z" fill="#010101"/>
<path d="M623.779 205.029H606.816C607.051 206.508 607.711 207.705 608.771 208.573C609.832 209.441 611.198 209.887 612.847 209.887C614.826 209.887 616.523 209.206 617.936 207.822L622.389 209.91C621.282 211.483 619.962 212.633 618.407 213.384C616.852 214.134 615.015 214.51 612.894 214.51C609.596 214.51 606.91 213.477 604.837 211.389C602.763 209.324 601.727 206.719 601.727 203.598C601.727 200.406 602.763 197.755 604.837 195.643C606.91 193.531 609.502 192.475 612.612 192.475C615.934 192.475 618.62 193.531 620.693 195.643C622.766 197.755 623.803 200.547 623.803 204.02L623.779 205.029ZM618.502 200.899C618.148 199.726 617.465 198.787 616.428 198.06C615.392 197.332 614.214 196.957 612.847 196.957C611.386 196.957 610.091 197.379 608.983 198.201C608.277 198.717 607.64 199.609 607.051 200.923H618.502V200.899Z" fill="#010101"/>
<path d="M642.911 195.971L639.636 199.233C638.316 197.919 637.115 197.262 636.031 197.262C635.442 197.262 634.971 197.379 634.641 197.638C634.311 197.896 634.146 198.201 634.146 198.576C634.146 198.858 634.264 199.116 634.476 199.351C634.688 199.585 635.206 199.914 636.055 200.313L637.986 201.275C640.013 202.284 641.426 203.293 642.18 204.326C642.934 205.358 643.311 206.578 643.311 207.986C643.311 209.84 642.628 211.413 641.261 212.656C639.895 213.9 638.057 214.534 635.748 214.534C632.685 214.534 630.235 213.337 628.397 210.943L631.649 207.423C632.261 208.151 632.992 208.714 633.816 209.16C634.641 209.606 635.395 209.817 636.031 209.817C636.738 209.817 637.28 209.653 637.704 209.324C638.128 208.995 638.34 208.597 638.34 208.174C638.34 207.376 637.562 206.578 636.031 205.804L634.264 204.912C630.871 203.199 629.151 201.064 629.151 198.506C629.151 196.84 629.787 195.432 631.083 194.258C632.356 193.085 634.005 192.498 636.007 192.498C637.374 192.498 638.67 192.803 639.871 193.39C641.049 194 642.086 194.845 642.911 195.971Z" fill="#010101"/>
<path d="M651.487 184.426C652.405 184.426 653.206 184.754 653.866 185.435C654.526 186.092 654.856 186.913 654.856 187.852C654.856 188.79 654.526 189.588 653.866 190.245C653.206 190.902 652.429 191.231 651.51 191.231C650.568 191.231 649.767 190.902 649.107 190.222C648.447 189.541 648.117 188.72 648.117 187.758C648.117 186.843 648.447 186.045 649.107 185.388C649.79 184.754 650.568 184.426 651.487 184.426ZM648.848 193.038H654.125V213.994H648.848V193.038Z" fill="#010101"/>
<path d="M676.46 193.038H681.714V210.99C681.714 214.534 681.007 217.138 679.57 218.805C677.661 221.057 674.763 222.184 670.9 222.184C668.826 222.184 667.106 221.926 665.693 221.409C664.279 220.893 663.101 220.142 662.135 219.157C661.169 218.171 660.462 216.951 659.991 215.519H665.811C666.329 216.106 666.989 216.552 667.813 216.857C668.614 217.162 669.58 217.303 670.688 217.303C672.101 217.303 673.256 217.092 674.104 216.646C674.975 216.2 675.588 215.637 675.941 214.956C676.295 214.252 676.483 213.079 676.483 211.366C675.565 212.281 674.575 212.961 673.562 213.36C672.549 213.759 671.394 213.97 670.099 213.97C667.271 213.97 664.892 212.961 662.936 210.92C660.981 208.902 660.015 206.32 660.015 203.223C660.015 199.89 661.051 197.239 663.101 195.22C664.962 193.39 667.201 192.498 669.792 192.498C670.994 192.498 672.148 192.709 673.232 193.155C674.316 193.601 675.4 194.329 676.46 195.338V193.038ZM670.97 197.426C669.297 197.426 667.931 197.99 666.847 199.092C665.763 200.195 665.222 201.603 665.222 203.27C665.222 205.006 665.787 206.438 666.894 207.564C668.002 208.69 669.392 209.23 671.064 209.23C672.69 209.23 674.057 208.69 675.117 207.587C676.177 206.508 676.719 205.077 676.719 203.293C676.719 201.556 676.177 200.125 675.117 199.046C674.057 197.966 672.667 197.426 670.97 197.426Z" fill="#010101"/>
<path d="M689.018 193.038H694.295V195.174C695.497 194.164 696.581 193.46 697.547 193.085C698.512 192.686 699.502 192.498 700.539 192.498C702.612 192.498 704.402 193.226 705.84 194.681C707.065 195.924 707.677 197.731 707.677 200.148V213.994H702.447V204.818C702.447 202.307 702.329 200.665 702.117 199.843C701.882 199.022 701.505 198.388 700.939 197.966C700.374 197.544 699.69 197.332 698.866 197.332C697.806 197.332 696.887 197.684 696.109 198.388C695.355 199.092 694.814 200.078 694.507 201.345C694.342 202.002 694.272 203.41 694.272 205.593V213.994H688.994V193.038H689.018Z" fill="#010101"/>
<path d="M716.819 184.426C717.738 184.426 718.539 184.754 719.199 185.435C719.859 186.092 720.188 186.913 720.188 187.852C720.188 188.79 719.859 189.588 719.199 190.245C718.539 190.902 717.762 191.231 716.843 191.231C715.9 191.231 715.099 190.902 714.44 190.222C713.78 189.541 713.45 188.72 713.45 187.758C713.45 186.843 713.78 186.045 714.44 185.388C715.099 184.754 715.9 184.426 716.819 184.426ZM714.181 193.038H719.458V213.994H714.181V193.038Z" fill="#010101"/>
<path d="M726.22 193.038H731.497V195.174C732.699 194.164 733.782 193.46 734.748 193.085C735.714 192.686 736.704 192.498 737.741 192.498C739.814 192.498 741.604 193.226 743.042 194.681C744.267 195.924 744.879 197.731 744.879 200.148V213.994H739.649V204.818C739.649 202.307 739.531 200.665 739.319 199.843C739.083 199.022 738.706 198.388 738.141 197.966C737.576 197.544 736.892 197.332 736.068 197.332C735.008 197.332 734.089 197.684 733.311 198.388C732.557 199.092 732.015 200.078 731.709 201.345C731.544 202.002 731.474 203.41 731.474 205.593V213.994H726.196V193.038H726.22Z" fill="#010101"/>
<path d="M767.521 193.038H772.775V210.99C772.775 214.534 772.068 217.138 770.631 218.805C768.722 221.057 765.824 222.184 761.96 222.184C759.887 222.184 758.167 221.926 756.754 221.409C755.34 220.893 754.162 220.142 753.196 219.157C752.23 218.171 751.523 216.951 751.052 215.519H756.871C757.39 216.106 758.049 216.552 758.874 216.857C759.675 217.162 760.641 217.303 761.748 217.303C763.162 217.303 764.316 217.092 765.165 216.646C766.036 216.2 766.649 215.637 767.002 214.956C767.356 214.252 767.544 213.079 767.544 211.366C766.625 212.281 765.636 212.961 764.623 213.36C763.61 213.759 762.455 213.97 761.159 213.97C758.332 213.97 755.953 212.961 753.997 210.92C752.042 208.902 751.076 206.32 751.076 203.223C751.076 199.89 752.112 197.239 754.162 195.22C756.023 193.39 758.261 192.498 760.853 192.498C762.055 192.498 763.209 192.709 764.293 193.155C765.377 193.601 766.46 194.329 767.521 195.338V193.038ZM762.031 197.426C760.358 197.426 758.992 197.99 757.908 199.092C756.824 200.195 756.282 201.603 756.282 203.27C756.282 205.006 756.848 206.438 757.955 207.564C759.062 208.69 760.453 209.23 762.125 209.23C763.751 209.23 765.117 208.69 766.178 207.587C767.238 206.508 767.78 205.077 767.78 203.293C767.78 201.556 767.238 200.125 766.178 199.046C765.117 197.966 763.727 197.426 762.031 197.426Z" fill="#010101"/>
<path d="M210.557 233.002H216.047L226.979 261.327H221.348L219.133 255.483H207.542L205.233 261.327H199.602L210.557 233.002ZM213.337 240.511L209.521 250.227H217.131L213.337 240.511Z" fill="#010101"/>
<path d="M232.586 240.37H237.863V242.506C239.065 241.497 240.148 240.793 241.114 240.417C242.08 240.018 243.07 239.831 244.107 239.831C246.18 239.831 247.97 240.558 249.408 242.013C250.633 243.257 251.245 245.064 251.245 247.481V261.326H246.015V252.151C246.015 249.64 245.897 247.997 245.685 247.176C245.449 246.354 245.072 245.721 244.507 245.298C243.942 244.876 243.258 244.665 242.434 244.665C241.374 244.665 240.455 245.017 239.677 245.721C238.923 246.425 238.381 247.41 238.075 248.678C237.91 249.335 237.839 250.743 237.839 252.925V261.326H232.562V240.37H232.586Z" fill="#010101"/>
<path d="M273.84 232.275H279.118V261.303H273.84V259.097C272.804 260.083 271.767 260.787 270.73 261.209C269.694 261.632 268.563 261.843 267.361 261.843C264.652 261.843 262.296 260.787 260.317 258.698C258.338 256.61 257.348 253.981 257.348 250.86C257.348 247.622 258.314 244.97 260.222 242.905C262.131 240.84 264.463 239.807 267.22 239.807C268.492 239.807 269.67 240.042 270.777 240.511C271.885 240.981 272.898 241.708 273.84 242.647V232.275ZM268.304 244.688C266.678 244.688 265.311 245.252 264.228 246.402C263.144 247.551 262.602 249.03 262.602 250.813C262.602 252.62 263.144 254.122 264.251 255.272C265.359 256.445 266.702 257.032 268.304 257.032C269.953 257.032 271.343 256.469 272.427 255.319C273.51 254.169 274.076 252.667 274.076 250.813C274.076 248.983 273.534 247.504 272.427 246.378C271.343 245.252 269.953 244.688 268.304 244.688Z" fill="#010101"/>
<path d="M300.086 233.002H306.495C310.618 233.002 313.704 233.518 315.707 234.527C317.709 235.536 319.358 237.203 320.678 239.502C321.974 241.802 322.633 244.477 322.633 247.551C322.633 249.734 322.28 251.729 321.55 253.559C320.819 255.389 319.806 256.915 318.534 258.112C317.262 259.308 315.871 260.153 314.364 260.623C312.879 261.092 310.288 261.327 306.589 261.327H300.086V233.002ZM305.458 238.188V256.046H307.979C310.453 256.046 312.243 255.765 313.374 255.202C314.481 254.638 315.4 253.676 316.107 252.339C316.814 251.001 317.167 249.358 317.167 247.411C317.167 244.407 316.319 242.06 314.646 240.418C313.115 238.916 310.688 238.188 307.319 238.188H305.458Z" fill="#010101"/>
<path d="M350.27 252.362H333.306C333.542 253.841 334.202 255.037 335.262 255.906C336.322 256.774 337.688 257.22 339.338 257.22C341.317 257.22 343.013 256.539 344.427 255.155L348.88 257.243C347.772 258.815 346.453 259.965 344.898 260.716C343.343 261.467 341.505 261.843 339.385 261.843C336.086 261.843 333.401 260.81 331.327 258.722C329.254 256.657 328.217 254.052 328.217 250.931C328.217 247.739 329.254 245.087 331.327 242.975C333.401 240.863 335.992 239.807 339.102 239.807C342.424 239.807 345.11 240.863 347.183 242.975C349.257 245.087 350.293 247.88 350.293 251.353L350.27 252.362ZM344.992 248.232C344.639 247.059 343.956 246.12 342.919 245.392C341.882 244.665 340.704 244.29 339.338 244.29C337.877 244.29 336.581 244.712 335.474 245.533C334.767 246.05 334.131 246.941 333.542 248.255H344.992V248.232Z" fill="#010101"/>
<path d="M354.251 240.37H359.623L364.924 252.737L370.225 240.37H375.573L366.62 261.326H363.204L354.251 240.37Z" fill="#010101"/>
<path d="M401.724 252.362H384.761C384.997 253.841 385.656 255.037 386.717 255.906C387.777 256.774 389.143 257.22 390.793 257.22C392.772 257.22 394.468 256.539 395.882 255.155L400.334 257.243C399.227 258.815 397.908 259.965 396.353 260.716C394.798 261.467 392.96 261.843 390.84 261.843C387.541 261.843 384.855 260.81 382.782 258.722C380.709 256.657 379.672 254.052 379.672 250.931C379.672 247.739 380.709 245.087 382.782 242.975C384.855 240.863 387.447 239.807 390.557 239.807C393.879 239.807 396.565 240.863 398.638 242.975C400.711 245.087 401.748 247.88 401.748 251.353L401.724 252.362ZM396.447 248.232C396.094 247.059 395.41 246.12 394.374 245.392C393.337 244.665 392.159 244.29 390.793 244.29C389.332 244.29 388.036 244.712 386.929 245.533C386.222 246.05 385.586 246.941 384.997 248.255H396.447V248.232Z" fill="#010101"/>
<path d="M407.402 232.275H412.68V261.303H407.402V232.275Z" fill="#010101"/>
<path d="M429.337 239.831C431.316 239.831 433.178 240.324 434.945 241.309C436.688 242.295 438.055 243.632 439.044 245.322C440.034 247.012 440.505 248.842 440.505 250.813C440.505 252.784 440.01 254.638 439.021 256.351C438.031 258.064 436.688 259.425 434.992 260.388C433.295 261.35 431.411 261.843 429.361 261.843C426.345 261.843 423.777 260.763 421.633 258.628C419.489 256.492 418.429 253.887 418.429 250.837C418.429 247.575 419.631 244.829 422.034 242.647C424.154 240.769 426.581 239.831 429.337 239.831ZM429.432 244.782C427.782 244.782 426.416 245.345 425.332 246.495C424.248 247.622 423.706 249.077 423.706 250.86C423.706 252.691 424.248 254.169 425.332 255.295C426.416 256.422 427.782 256.985 429.432 256.985C431.081 256.985 432.471 256.422 433.555 255.272C434.662 254.122 435.204 252.667 435.204 250.86C435.204 249.053 434.662 247.598 433.578 246.472C432.471 245.345 431.104 244.782 429.432 244.782Z" fill="#010101"/>
<path d="M452.026 240.37V242.67C452.968 241.732 454.005 241.004 455.112 240.535C456.219 240.065 457.397 239.831 458.67 239.831C461.426 239.831 463.759 240.863 465.667 242.928C467.575 244.993 468.541 247.645 468.541 250.884C468.541 254.005 467.552 256.609 465.573 258.721C463.594 260.81 461.238 261.866 458.528 261.866C457.327 261.866 456.196 261.655 455.136 261.232C454.099 260.81 453.062 260.106 452.026 259.12V269H446.795V240.394H452.026V240.37ZM457.562 244.688C455.89 244.688 454.523 245.252 453.416 246.378C452.308 247.504 451.767 248.983 451.767 250.813C451.767 252.667 452.308 254.169 453.416 255.319C454.523 256.469 455.89 257.032 457.562 257.032C459.165 257.032 460.531 256.445 461.638 255.272C462.746 254.099 463.288 252.62 463.288 250.813C463.288 249.006 462.746 247.551 461.662 246.401C460.578 245.252 459.212 244.688 457.562 244.688Z" fill="#010101"/>
<path d="M474.856 240.371H480.133V242.788C481.029 241.802 482.042 241.051 483.149 240.582C484.256 240.089 485.458 239.854 486.754 239.854C488.073 239.854 489.251 240.183 490.311 240.816C491.372 241.45 492.22 242.389 492.856 243.632C493.704 242.389 494.717 241.473 495.942 240.816C497.167 240.183 498.487 239.854 499.947 239.854C501.432 239.854 502.751 240.206 503.906 240.887C505.036 241.591 505.861 242.483 506.356 243.609C506.851 244.735 507.11 246.542 507.11 249.053V261.326H501.785V250.696C501.785 248.326 501.479 246.707 500.89 245.862C500.301 245.017 499.406 244.595 498.228 244.595C497.332 244.595 496.508 244.853 495.801 245.369C495.094 245.885 494.552 246.589 494.199 247.504C493.845 248.42 493.68 249.875 493.68 251.869V261.326H488.356V251.189C488.356 249.311 488.214 247.95 487.932 247.106C487.649 246.261 487.249 245.651 486.683 245.228C486.118 244.829 485.458 244.618 484.657 244.618C483.785 244.618 482.984 244.876 482.254 245.392C481.547 245.909 481.005 246.636 480.652 247.575C480.298 248.514 480.11 249.992 480.11 252.01V261.326H474.832V240.371H474.856Z" fill="#010101"/>
<path d="M535.147 252.362H518.183C518.419 253.841 519.079 255.037 520.139 255.906C521.199 256.774 522.565 257.22 524.215 257.22C526.194 257.22 527.89 256.539 529.304 255.155L533.757 257.243C532.649 258.815 531.33 259.965 529.775 260.716C528.22 261.467 526.382 261.843 524.262 261.843C520.963 261.843 518.277 260.81 516.204 258.722C514.131 256.657 513.094 254.052 513.094 250.931C513.094 247.739 514.131 245.087 516.204 242.975C518.277 240.863 520.869 239.807 523.979 239.807C527.301 239.807 529.987 240.863 532.06 242.975C534.134 245.087 535.17 247.88 535.17 251.353L535.147 252.362ZM529.869 248.232C529.516 247.059 528.832 246.12 527.796 245.392C526.759 244.665 525.581 244.29 524.215 244.29C522.754 244.29 521.458 244.712 520.351 245.533C519.644 246.05 519.008 246.941 518.419 248.255H529.869V248.232Z" fill="#010101"/>
<path d="M541.414 240.37H546.691V242.506C547.893 241.497 548.977 240.793 549.943 240.417C550.908 240.018 551.898 239.831 552.935 239.831C555.008 239.831 556.799 240.558 558.236 242.013C559.461 243.257 560.073 245.064 560.073 247.481V261.326H554.843V252.151C554.843 249.64 554.725 247.997 554.513 247.176C554.278 246.354 553.901 245.721 553.335 245.298C552.77 244.876 552.086 244.665 551.262 244.665C550.202 244.665 549.283 245.017 548.505 245.721C547.751 246.425 547.21 247.41 546.903 248.678C546.738 249.335 546.668 250.743 546.668 252.925V261.326H541.39V240.37H541.414Z" fill="#010101"/>
<path d="M567.778 232.65H573.055V240.37H576.189V244.899H573.055V261.326H567.778V244.899H565.068V240.37H567.778V232.65Z" fill="#010101"/>
<path d="M401.206 112.242H411.431V132.142H429.101V112.242H439.279V164.995H429.101V141.857H411.431V164.995H401.206V112.242Z" fill="#010101"/>
<path d="M513.707 110.904C521.199 110.904 527.631 113.603 533.026 119C538.421 124.398 541.107 130.992 541.107 138.759C541.107 146.457 538.445 152.98 533.12 158.307C527.796 163.634 521.34 166.309 513.754 166.309C505.814 166.309 499.194 163.564 493.94 158.096C488.686 152.628 486.047 146.128 486.047 138.595C486.047 133.55 487.272 128.903 489.723 124.679C492.173 120.455 495.542 117.1 499.83 114.612C504.118 112.125 508.759 110.904 513.707 110.904ZM513.589 120.737C508.688 120.737 504.565 122.427 501.22 125.829C497.874 129.232 496.202 133.55 496.202 138.783C496.202 144.626 498.298 149.226 502.516 152.628C505.791 155.28 509.537 156.618 513.754 156.618C518.537 156.618 522.613 154.905 525.982 151.455C529.351 148.005 531.024 143.781 531.024 138.736C531.024 133.714 529.327 129.467 525.935 125.993C522.565 122.473 518.442 120.737 513.589 120.737Z" fill="#010101"/>
<path d="M587.568 112.242H597.675V146.363C597.675 149.296 597.934 151.385 598.452 152.605C598.971 153.825 599.819 154.787 601.021 155.515C602.199 156.242 603.636 156.618 605.332 156.618C607.099 156.618 608.63 156.219 609.926 155.397C611.222 154.576 612.094 153.544 612.589 152.3C613.083 151.056 613.319 148.639 613.319 145.119V112.265H623.426V143.711C623.426 149.014 623.12 152.699 622.531 154.764C621.942 156.829 620.787 158.8 619.091 160.724C617.395 162.649 615.439 164.057 613.248 164.972C611.034 165.887 608.466 166.356 605.544 166.356C601.704 166.356 598.358 165.488 595.507 163.728C592.657 161.968 590.63 159.762 589.405 157.134C588.18 154.482 587.568 150.024 587.568 143.734V112.242Z" fill="#010101"/>
<path d="M700.233 119.423L692.764 125.994C690.149 122.356 687.463 120.549 684.754 120.549C683.434 120.549 682.351 120.901 681.502 121.605C680.654 122.309 680.23 123.107 680.23 123.999C680.23 124.891 680.536 125.712 681.125 126.51C681.95 127.566 684.4 129.819 688.523 133.292C692.364 136.507 694.696 138.525 695.521 139.346C697.57 141.411 699.008 143.359 699.856 145.236C700.704 147.114 701.128 149.155 701.128 151.385C701.128 155.703 699.62 159.293 696.628 162.109C693.636 164.925 689.701 166.333 684.871 166.333C681.102 166.333 677.803 165.418 675.023 163.564C672.22 161.734 669.816 158.824 667.837 154.881L676.319 149.789C678.864 154.459 681.809 156.782 685.107 156.782C686.827 156.782 688.288 156.289 689.466 155.28C690.644 154.271 691.233 153.121 691.233 151.807C691.233 150.61 690.785 149.413 689.89 148.217C688.994 147.02 687.039 145.189 684 142.725C678.227 138.032 674.505 134.418 672.809 131.884C671.136 129.349 670.288 126.791 670.288 124.257C670.288 120.596 671.678 117.452 674.481 114.847C677.285 112.219 680.725 110.928 684.848 110.928C687.487 110.928 690.008 111.538 692.411 112.758C694.861 113.955 697.453 116.184 700.233 119.423Z" fill="#010101"/>
<path d="M748.13 112.242H777.039V122.075H758.143V131.602H777.039V141.247H758.143V155.116H777.039V164.972H748.13V112.242Z" fill="#010101"/>
</svg>
